HIERARCHY
ROOT Hips
{
	OFFSET 0.00000 0.00000 0.00000
	CHANNELS 6 Xposition Yposition Zposition Zrotation Yrotation Xrotation 
	JOINT LHipJoint
	{
		OFFSET 0 0 0
		CHANNELS 3 Zrotation Yrotation Xrotation
		JOINT LeftHip
		{
			OFFSET 1.46561 -1.72757 0.83774
			CHANNELS 3 Zrotation Yrotation Xrotation
			JOINT LeftKnee
			{
				OFFSET 2.48915 -6.83890 0.00000
				CHANNELS 3 Zrotation Yrotation Xrotation
				JOINT LeftAnkle
				{
					OFFSET 2.60555 -7.15868 0.00000
					CHANNELS 3 Zrotation Yrotation Xrotation
					JOINT LeftToe
					{
						OFFSET 0.19248 -0.52884 2.26738
						CHANNELS 3 Zrotation Yrotation Xrotation
						End Site
						{
							OFFSET 0.00000 -0.00000 1.17015
						}
					}
				}
			}
		}
	}
	JOINT RHipJoint
	{
		OFFSET 0 0 0
		CHANNELS 3 Zrotation Yrotation Xrotation
		JOINT RightHip
		{
			OFFSET -1.46918 -1.72757 0.83774
			CHANNELS 3 Zrotation Yrotation Xrotation
			JOINT RightKnee
			{
				OFFSET -2.49034 -6.84216 0.00000
				CHANNELS 3 Zrotation Yrotation Xrotation
				JOINT RightAnkle
				{
					OFFSET -2.65971 -7.30750 0.00000
					CHANNELS 3 Zrotation Yrotation Xrotation
					JOINT RightToe
					{
						OFFSET -0.19227 -0.52827 2.30785
						CHANNELS 3 Zrotation Yrotation Xrotation
						End Site
						{
							OFFSET -0.00000 -0.00000 1.18972
						}
					}
				}
			}
		}
	}
	JOINT lowerback
	{
		OFFSET 0 0 0
		CHANNELS 3 Zrotation Yrotation Xrotation
		JOINT Chest
		{
			OFFSET 0.02432 2.19909 -0.28000
			CHANNELS 3 Zrotation Yrotation Xrotation
			JOINT Chest2
			{
				OFFSET 0.03714 2.21816 -0.15261
				CHANNELS 3 Zrotation Yrotation Xrotation
				JOINT lowerneck
				{
					OFFSET 0 0 0
					CHANNELS 3 Zrotation Yrotation Xrotation
					JOINT Neck
					{
						OFFSET -0.01896 1.56165 0.21681
						CHANNELS 3 Zrotation Yrotation Xrotation
						JOINT Head
						{
							OFFSET 0.02744 1.56009 0.06764
							CHANNELS 3 Zrotation Yrotation Xrotation
							End Site
							{
								OFFSET 0.01212 1.60574 0.00298
							}
						}
					}
				}
				JOINT LeftCollar
				{
					OFFSET 0 0 0
					CHANNELS 3 Zrotation Yrotation Xrotation
					JOINT LeftShoulder
					{
						OFFSET 3.05595 1.48048 -0.60794
CHANNELS 3 Zrotation Xrotation Yrotation
						JOINT LeftElbow
						{
OFFSET 0 -5.206070 -0.000000
CHANNELS 3 Zrotation Xrotation Yrotation
							JOINT LeftWrist
							{
OFFSET 0 -3.399610 0.000000
CHANNELS 3 Zrotation Xrotation Yrotation
								JOINT lhand
								{
									OFFSET 0 0 0
CHANNELS 3 Zrotation Xrotation Yrotation
									JOINT LFingers
									{
OFFSET 0 -0.519690 0.000000
CHANNELS 3 Zrotation Xrotation Yrotation
										End Site
										{
OFFSET 0 -0.418990 0.000000
										}
									}
								}
								JOINT LThumb
								{
OFFSET 0 0.000000 0.000000
CHANNELS 3 Zrotation Xrotation Yrotation
									End Site
									{
OFFSET 0 -0.425390 0.425390
									}
								}
							}
						}
					}
				}
				JOINT RightCollar
				{
					OFFSET 0 0 0
					CHANNELS 3 Zrotation Yrotation Xrotation
					JOINT RightShoulder
					{
						OFFSET -2.99052 1.57608 -0.69102
CHANNELS 3 Zrotation Xrotation Yrotation
						JOINT RightElbow
						{
OFFSET 0 -5.322140 0.000000
CHANNELS 3 Zrotation Xrotation Yrotation
							JOINT RightWrist
							{
OFFSET 0 -3.512080 0.000000
CHANNELS 3 Zrotation Xrotation Yrotation
								JOINT rhand
								{
									OFFSET 0 0 0
CHANNELS 3 Zrotation Xrotation Yrotation
									JOINT RFingers
									{
OFFSET 0 -0.586680 0.000000
CHANNELS 3 Zrotation Xrotation Yrotation
										End Site
										{
OFFSET 0 -0.473000 0.000000
										}
									}
								}
								JOINT RThumb
								{
OFFSET 0 0.000000 0.000000
CHANNELS 3 Zrotation Xrotation Yrotation
									End Site
									{
OFFSET 0 -0.480220 0.480220
									}
								}
							}
						}
					}
				}
			}
		}
	}
}
MOTION
Frames: 9
Frame Time: 0.008333333333333333
0.430320 20.941585 -0.771076 -0.923678 2.038165 8.744554 0.000000 0.000000 0.000000 -16.587632 -2.020889 -33.459329 1.778179 8.386848 23.896013 0.932616 0.423490 18.118444 0.028008 1.080239 2.969513 0.000000 0.000000 0.000000 17.566796 5.226071 -33.517225 -1.712492 -8.239064 23.442898 -0.686417 -9.790483 15.295078 -0.720801 -5.424877 15.124592 -1.665085 0.785342 10.302344 1.641451 0.912026 6.110556 2.547341 0.388011 0.529207 -1.114765 -0.914968 -13.459330 0.919189 -1.243226 25.424492 0.358762 -0.560548 10.356381 0.000000 0.000000 0.000000 3.781854 -10.664622 -8.966196 4.556373 -7.834443 0.312180 24.769591 -0.443734 9.739966 0.000000 0.000000 0.000000 -7.125000 0.000000 0.000000 -1.574230 19.276952 -0.966643 0.000000 0.000000 0.000000 -2.977561 -9.423902 1.717455 -10.802668 -17.985149 -1.714484 -24.072866 52.828756 23.306084 0.000000 0.000000 0.000000 7.125000 0.000000 0.000000 5.458575 55.156393 -1.364264
0.425519 20.758836 -0.516788 -0.948951 2.177250 8.634791 0.000000 0.000000 0.000000 -16.515342 -2.181649 -33.466014 1.502561 7.739870 21.927962 0.994026 0.909908 18.563201 0.030432 1.125999 3.095466 0.000000 0.000000 0.000000 17.436995 5.344515 -33.393044 -1.521734 -7.788189 22.073246 -0.707767 -10.419314 15.645570 -0.796338 -5.695268 15.902920 -1.617261 0.751041 9.976947 1.621072 0.874364 6.105349 2.505829 0.369060 0.703639 -1.134494 -0.918748 -13.359709 0.996453 -1.267203 25.688561 0.387157 -0.564064 10.434499 0.000000 0.000000 0.000000 3.748694 -9.991532 -8.902886 4.516270 -7.766465 0.306744 24.627996 -0.731066 9.571725 0.000000 0.000000 0.000000 -7.125000 0.000000 0.000000 -1.667470 19.472941 -1.016606 0.000000 0.000000 0.000000 -2.991749 -8.804005 0.809582 -10.610252 -17.688371 -1.655606 -24.106550 53.395917 23.373301 0.000000 0.000000 0.000000 7.125000 0.000000 0.000000 5.446877 55.233870 -1.371586
0.421219 20.559374 -0.260280 -0.963502 2.313961 8.462548 0.000000 0.000000 0.000000 -16.418870 -2.401148 -33.403128 1.278343 7.162482 20.198852 1.047477 1.454814 18.913490 0.028298 1.085530 2.984119 0.000000 0.000000 0.000000 17.279987 5.467818 -33.181893 -1.365700 -7.395215 20.892248 -0.721802 -10.981098 15.917879 -0.871002 -5.949771 16.638945 -1.581914 0.713508 9.653206 1.599534 0.831206 6.113926 2.470652 0.346733 0.892119 -1.147565 -0.915738 -13.277677 1.068762 -1.282203 25.951539 0.413949 -0.563259 10.515925 0.000000 0.000000 0.000000 3.717629 -9.321013 -8.827874 4.511706 -7.758590 0.306101 24.477254 -1.042953 9.375953 0.000000 0.000000 0.000000 -7.125000 0.000000 0.000000 -1.766690 19.699277 -1.068235 0.000000 0.000000 0.000000 -3.023555 -8.210983 -0.002208 -10.443035 -17.429510 -1.605127 -24.106288 53.853314 23.413623 0.000000 0.000000 0.000000 7.125000 0.000000 0.000000 5.461454 55.276200 -1.380883
0.417006 20.342569 -0.002172 -0.966827 2.440817 8.204771 0.000000 0.000000 0.000000 -16.331300 -2.600050 -33.291605 1.104964 6.676525 18.761418 1.104332 2.012773 19.294466 0.023298 0.984422 2.705926 0.000000 0.000000 0.000000 17.109135 5.587235 -32.881473 -1.246327 -7.077428 19.945296 -0.725246 -11.481103 16.085268 -0.938206 -6.169111 17.276042 -1.565889 0.678048 9.361952 1.578274 0.788690 6.138764 2.446042 0.324188 1.079819 -1.160430 -0.909473 -13.208518 1.140863 -1.292625 26.208401 0.441231 -0.560371 10.597818 0.000000 0.000000 0.000000 3.683525 -8.657623 -8.746821 4.533512 -7.795592 0.309054 24.332031 -1.334650 9.165616 0.000000 0.000000 0.000000 -7.125000 0.000000 0.000000 -1.862018 19.940604 -1.115891 0.000000 0.000000 0.000000 -3.073842 -7.641178 -0.710943 -10.304541 -17.214529 -1.563897 -24.064066 54.204357 23.421158 0.000000 0.000000 0.000000 7.125000 0.000000 0.000000 5.508725 55.275366 -1.392762
0.412685 20.108244 0.256700 -0.958321 2.552175 7.845720 0.000000 0.000000 0.000000 -16.291518 -2.699932 -33.148765 0.979582 6.298714 17.654160 1.172891 2.531950 19.786318 0.018258 0.871733 2.395870 0.000000 0.000000 0.000000 16.944746 5.673396 -32.503396 -1.163823 -6.848125 19.266316 -0.720672 -11.942379 16.177822 -0.997432 -6.355245 17.818892 -1.565142 0.653606 9.126265 1.552023 0.759027 6.179599 2.423180 0.307701 1.253167 -1.166336 -0.904831 -13.163089 1.215540 -1.308004 26.471055 0.467731 -0.558608 10.686967 0.000000 0.000000 0.000000 3.661316 -8.016143 -8.680906 4.557522 -7.836305 0.312329 24.230438 -1.584680 9.007973 0.000000 0.000000 0.000000 -7.125000 0.000000 0.000000 -1.928702 20.120633 -1.148206 0.000000 0.000000 0.000000 -3.135918 -7.087006 -1.305868 -10.194631 -17.043453 -1.531496 -24.012039 54.496814 23.425946 0.000000 0.000000 0.000000 7.125000 0.000000 0.000000 5.565395 55.269712 -1.406371
0.407973 19.856486 0.515191 -0.936031 2.653112 7.381978 0.000000 0.000000 0.000000 -16.324329 -2.665220 -32.980429 0.898124 6.039073 16.898099 1.255072 2.952715 20.406454 0.014422 0.774911 2.129683 0.000000 0.000000 0.000000 16.804716 5.688699 -32.069347 -1.117249 -6.714706 18.872769 -0.716812 -12.370928 16.274025 -1.055108 -6.530848 18.332797 -1.579269 0.640420 8.965785 1.519300 0.742515 6.230845 2.400328 0.297740 1.395562 -1.173694 -0.906027 -13.135448 1.298388 -1.333778 26.739450 0.496176 -0.560519 10.782424 0.000000 0.000000 0.000000 3.651374 -7.397583 -8.635910 4.567010 -7.852373 0.313624 24.232178 -1.794317 8.975333 0.000000 0.000000 0.000000 -7.125000 0.000000 0.000000 -1.926279 20.156141 -1.145168 0.000000 0.000000 0.000000 -3.205597 -6.553334 -1.808080 -10.104628 -16.903020 -1.505216 -23.966179 54.798471 23.433265 0.000000 0.000000 0.000000 7.125000 0.000000 0.000000 5.616397 55.268033 -1.419104
0.402639 19.587649 0.772662 -0.911228 2.740144 6.818218 0.000000 0.000000 0.000000 -16.400117 -2.529357 -32.764257 0.856293 5.901120 16.497768 1.345426 3.260925 21.097225 0.011706 0.698064 1.918327 0.000000 0.000000 0.000000 16.708489 5.630601 -31.594001 -1.105183 -6.679642 18.769718 -0.724096 -12.731318 16.451355 -1.116171 -6.711000 18.862151 -1.599053 0.640681 8.885269 1.482201 0.742663 6.285504 2.374205 0.296458 1.496901 -1.190918 -0.916413 -13.122021 1.395522 -1.374408 27.016842 0.529678 -0.568117 10.885041 0.000000 0.000000 0.000000 3.653117 -6.802492 -8.615185 4.551853 -7.826621 0.311525 24.307545 -1.972514 9.038244 0.000000 0.000000 0.000000 -7.125000 0.000000 0.000000 -1.874611 20.081568 -1.117522 0.000000 0.000000 0.000000 -3.279830 -6.041032 -2.233738 -10.024658 -16.778067 -1.482070 -23.940104 55.150852 23.451399 0.000000 0.000000 0.000000 7.125000 0.000000 0.000000 5.650424 55.281761 -1.429627
0.396614 19.301989 1.028436 -0.885315 2.812201 6.168648 0.000000 0.000000 0.000000 -16.475602 -2.379955 -32.480871 0.853252 5.891122 16.468841 1.433739 3.459222 21.770643 0.008957 0.609343 1.674494 0.000000 0.000000 0.000000 16.650017 5.518863 -31.094872 -1.127354 -6.743858 18.958808 -0.751695 -12.952198 16.757878 -1.176474 -6.883852 19.371950 -1.625849 0.652174 8.883809 1.442282 0.756557 6.331156 2.347336 0.302548 1.544881 -1.217344 -0.934057 -13.117479 1.497431 -1.424887 27.307857 0.565392 -0.580312 10.995426 0.000000 0.000000 0.000000 3.660548 -6.219940 -8.612121 4.510933 -7.757340 0.306014 24.410645 -2.146006 9.144274 0.000000 0.000000 0.000000 -7.125000 0.000000 0.000000 -1.804929 19.957687 -1.080923 0.000000 0.000000 0.000000 -3.358154 -5.547449 -2.591728 -9.945746 -16.654664 -1.459399 -23.939671 55.559562 23.478348 0.000000 0.000000 0.000000 7.125000 0.000000 0.000000 5.660519 55.309951 -1.436104
0.389805 18.999368 1.282531 -0.864538 2.865993 5.451035 0.000000 0.000000 0.000000 -16.503638 -2.298459 -32.132443 0.891099 6.016509 16.832566 1.489617 3.508648 22.200496 0.006778 0.530204 1.457030 0.000000 0.000000 0.000000 16.620099 5.396766 -30.603083 -1.189092 -6.919231 19.476496 -0.774355 -12.653386 16.857826 -1.121000 -6.723676 18.899935 -1.663724 0.671899 8.952170 1.406562 0.779715 6.358205 2.329490 0.313669 1.534505 -1.252202 -0.953873 -13.130550 1.591669 -1.474724 27.618831 0.600137 -0.593750 11.117633 0.000000 0.000000 0.000000 3.659545 -5.645365 -8.612941 4.446191 -7.647646 0.297370 24.492483 -2.334123 9.221068 0.000000 0.000000 0.000000 -7.125000 0.000000 0.000000 -1.749418 19.867369 -1.051215 0.000000 0.000000 0.000000 -3.447676 -5.071538 -2.866666 -9.863244 -16.525406 -1.435847 -23.949622 55.977001 23.512354 0.000000 0.000000 0.000000 7.125000 0.000000 0.000000 5.662248 55.347602 -1.441719
